<svg id="b1c154f8-d93f-4085-b921-05a1136c52b1" data-name="Слой 1" xmlns="http://www.w3.org/2000/svg" xmlns:xlink="http://www.w3.org/1999/xlink" width="544" height="498" viewBox="0 0 544 498"><defs><linearGradient id="e13c74e4-ae6d-4eee-9092-66f264303bac" x1="-774.22" y1="1304.78" x2="-777.28" y2="1307.84" gradientTransform="translate(8653.79 -14218.71) scale(11.03)" gradientUnits="userSpaceOnUse"><stop offset="0.18" stop-color="#0052cc"/><stop offset="1" stop-color="#2684ff"/></linearGradient><linearGradient id="ee59aefe-1a80-4f54-9c16-7fd0a360129d" x1="-773.41" y1="1313.56" x2="-770.36" y2="1310.51" xlink:href="#e13c74e4-ae6d-4eee-9092-66f264303bac"/></defs><g id="bbb23123-a950-45c3-bf61-8f5003f12c53" data-name="graph-monitor-computer-screen"><path d="M544,16V288H80V16A16,16,0,0,1,96,0H528A16,16,0,0,1,544,16Z" fill="#2488ff"/><path d="M256,328H368v40H256Z" fill="#acabb1"/><path d="M544,288v24a16,16,0,0,1-16,16H96a16,16,0,0,1-16-16V288Z" fill="#e8e5fb"/><path d="M216,368H408v48H216Z" fill="#e8e5fb"/><path d="M448,112h48V232H448Z" fill="#f3ac3c"/><path d="M368,128h48V232H368Z" fill="#f6cc4f"/><path d="M288,56h48V232H288Z" fill="#ec455a"/><path d="M208,160h48v72H208Z" fill="#f6cc4f"/><path d="M128,128h48V232H128Z" fill="#f3ac3c"/><path d="M104,232H520v24H104Z" fill="#5bcbfa"/><path d="M512,48h16V24a8,8,0,0,0-8-8H496V32h16Z" fill="#57a4ff"/><path d="M112,32h16V16H104a8,8,0,0,0-8,8V48h16Z" fill="#57a4ff"/></g><path d="M144,370V474a24,24,0,0,1-48,0h0V370Z" fill="#3e3d42"/><path d="M104,322h32v48H104Z" fill="#787680"/><circle cx="120" cy="218" r="120" fill="#bdfdff"/><path d="M96,402h48v24H96Z" fill="#e8e5fb"/><path d="M40,218a80.09,80.09,0,0,1,80-80V122a96.1,96.1,0,0,0-96,96Z" fill="#fff"/><path d="M197,214.43,126.8,144.2,120,137.4,67.12,190.26,43,214.43a6.47,6.47,0,0,0,0,9.14l48.3,48.3L120,300.6l52.86-52.86.83-.82L197,223.6a6.45,6.45,0,0,0,0-9.13l0,0Zm-77,28.7L95.86,219,120,194.87,144.12,219Z" fill="#2684ff"/><path d="M120,194.87a40.62,40.62,0,0,1-.17-57.28L67,190.37l28.74,28.74Z" fill="url(#e13c74e4-ae6d-4eee-9092-66f264303bac)"/><path d="M144.18,218.93,120,243.13a40.63,40.63,0,0,1,0,57.46l53-52.92Z" fill="url(#ee59aefe-1a80-4f54-9c16-7fd0a360129d)"/><path d="M392.41,58.68,350,108.16l10.73,9.19,38.62-45,44.41,25.37a7.06,7.06,0,0,0,8.82-1.48l26.16-29.9,10.06,8.81L496.73,35,458,48.18,468.1,57,445.74,82.54l-44.43-25.4a7.06,7.06,0,0,0-8.9,1.54Z" fill="#ec455a"/></svg>