<svg id="a9a4fa5c-64f6-4c2a-bed4-1b35a2d0cd63" data-name="Слой 1" xmlns="http://www.w3.org/2000/svg" xmlns:xlink="http://www.w3.org/1999/xlink" width="72" height="64.55" viewBox="0 0 72 64.55"><defs><linearGradient id="b99e582e-de39-46af-aedd-d010d8a67330" x1="-276.3" y1="404.87" x2="-277.19" y2="405.76" gradientTransform="translate(10813.46 -15798.15) scale(39.06)" gradientUnits="userSpaceOnUse"><stop offset="0.18" stop-color="#0052cc"/><stop offset="1" stop-color="#2684ff"/></linearGradient><linearGradient id="aa3d7eff-7a44-40e1-8795-f2d1ec8955a5" x1="-276.26" y1="405.27" x2="-275.37" y2="404.39" xlink:href="#b99e582e-de39-46af-aedd-d010d8a67330"/></defs><path d="M72,2.48V44.69H0V2.48A2.49,2.49,0,0,1,2.48,0h67A2.51,2.51,0,0,1,72,2.48Z" fill="#2488ff"/><path d="M27.31,50.9H44.69v6.2H27.31Z" fill="#acabb1"/><path d="M72,44.69v3.72a2.49,2.49,0,0,1-2.48,2.49h-67A2.49,2.49,0,0,1,0,48.41V44.69Z" fill="#e8e5fb"/><path d="M21.1,57.1H50.9v7.45H21.1Z" fill="#e8e5fb"/><path d="M57.1,17.38h7.45V36H57.1Z" fill="#f3ac3c"/><path d="M44.69,19.86h7.45V36H44.69Z" fill="#f6cc4f"/><path d="M18.2,36H68.28v3.72H18.2Z" fill="#5bcbfa"/><path d="M67,7.45h2.49V3.72a1.25,1.25,0,0,0-1.24-1.24H64.55V5H67Z" fill="#57a4ff"/><path d="M5,5H7.45V2.48H3.72A1.25,1.25,0,0,0,2.48,3.72V7.45H5Z" fill="#57a4ff"/><circle cx="22.61" cy="22.86" r="17.49" fill="#bdfdff"/><path d="M35.31,22.15,22.56,9.4,9.81,22.15a1.1,1.1,0,0,0,0,1.51L22.56,36.41,35.31,23.66a1.08,1.08,0,0,0,0-1.51ZM22.56,26.8l-3.94-3.94,3.94-3.95,4,3.95Z" fill="#2684ff"/><path d="M22.56,18.91a6.6,6.6,0,0,1,0-9.41l-8.7,8.7L18.62,23Z" fill="url(#b99e582e-de39-46af-aedd-d010d8a67330)"/><path d="M26.61,22.86,22.66,26.8a6.72,6.72,0,0,1,0,9.51h0l8.71-8.7Z" fill="url(#aa3d7eff-7a44-40e1-8795-f2d1ec8955a5)"/><path d="M60.44,11.7,62.3,4.76,55.37,6.63,57,8.29l-3.54,3.52-4.1-3.07a1.25,1.25,0,0,0-1.63.1l-6.2,6.21,1.75,1.76,5.45-5.45,4.09,3.07a1.25,1.25,0,0,0,1.63-.11l4.3-4.3Z" fill="#ec455a"/></svg>