<?xml version="1.0" encoding="UTF-8" standalone="no"?>
<svg
   xmlns:dc="http://purl.org/dc/elements/1.1/"
   xmlns:cc="http://creativecommons.org/ns#"
   xmlns:rdf="http://www.w3.org/1999/02/22-rdf-syntax-ns#"
   xmlns:svg="http://www.w3.org/2000/svg"
   xmlns="http://www.w3.org/2000/svg"
   xmlns:xlink="http://www.w3.org/1999/xlink"
   xmlns:sodipodi="http://sodipodi.sourceforge.net/DTD/sodipodi-0.dtd"
   xmlns:inkscape="http://www.inkscape.org/namespaces/inkscape"
   inkscape:version="1.0 (1.0+r73+1)"
   sodipodi:docname="jira-logo-small.svg"
   version="1.1"
   viewBox="0 0 70 64.080879"
   height="64.080879"
   width="70"
   data-name="Слой 1"
   id="b1c154f8-d93f-4085-b921-05a1136c52b1">
  <metadata
     id="metadata56">
    <rdf:RDF>
      <cc:Work
         rdf:about="">
        <dc:format>image/svg+xml</dc:format>
        <dc:type
           rdf:resource="http://purl.org/dc/dcmitype/StillImage" />
        <dc:title></dc:title>
      </cc:Work>
    </rdf:RDF>
  </metadata>
  <sodipodi:namedview
     inkscape:current-layer="b1c154f8-d93f-4085-b921-05a1136c52b1"
     inkscape:window-maximized="1"
     inkscape:window-y="30"
     inkscape:window-x="1987"
     inkscape:cy="78.148482"
     inkscape:cx="-67.173004"
     inkscape:zoom="0.61268389"
     showgrid="false"
     id="namedview54"
     inkscape:window-height="1022"
     inkscape:window-width="1853"
     inkscape:pageshadow="2"
     inkscape:pageopacity="0"
     guidetolerance="10"
     gridtolerance="10"
     objecttolerance="10"
     borderopacity="1"
     bordercolor="#666666"
     pagecolor="#ffffff" />
  <defs
     id="defs8">
    <linearGradient
       gradientUnits="userSpaceOnUse"
       gradientTransform="matrix(11.03,0,0,11.03,8653.79,-14218.71)"
       y2="1307.84"
       x2="-777.28003"
       y1="1304.78"
       x1="-774.21997"
       id="e13c74e4-ae6d-4eee-9092-66f264303bac">
      <stop
         id="stop2"
         stop-color="#0052cc"
         offset="0.18" />
      <stop
         id="stop4"
         stop-color="#2684ff"
         offset="1" />
    </linearGradient>
    <linearGradient
       xlink:href="#e13c74e4-ae6d-4eee-9092-66f264303bac"
       y2="1310.51"
       x2="-770.35999"
       y1="1313.5601"
       x1="-773.40997"
       id="ee59aefe-1a80-4f54-9c16-7fd0a360129d" />
    <linearGradient
       y2="1307.84"
       x2="-777.28003"
       y1="1304.78"
       x1="-774.21997"
       gradientTransform="matrix(11.03,0,0,11.03,8653.79,-14218.71)"
       gradientUnits="userSpaceOnUse"
       id="linearGradient907"
       xlink:href="#e13c74e4-ae6d-4eee-9092-66f264303bac"
       inkscape:collect="always" />
  </defs>
  <g
     transform="scale(0.12867647)"
     id="g903">
    <g
       id="bbb23123-a950-45c3-bf61-8f5003f12c53"
       data-name="graph-monitor-computer-screen">
      <path
         d="M 544,16 V 288 H 80 V 16 A 16,16 0 0 1 96,0 h 432 a 16,16 0 0 1 16,16 z"
         fill="#2488ff"
         id="path10" />
      <path
         d="m 256,328 h 112 v 40 H 256 Z"
         fill="#acabb1"
         id="path12" />
      <path
         d="m 544,288 v 24 a 16,16 0 0 1 -16,16 H 96 A 16,16 0 0 1 80,312 v -24 z"
         fill="#e8e5fb"
         id="path14" />
      <path
         d="m 216,368 h 192 v 48 H 216 Z"
         fill="#e8e5fb"
         id="path16" />
      <path
         d="m 448,112 h 48 v 120 h -48 z"
         fill="#f3ac3c"
         id="path18" />
      <path
         d="m 368,128 h 48 v 104 h -48 z"
         fill="#f6cc4f"
         id="path20" />
      <path
         d="m 288,56 h 48 v 176 h -48 z"
         fill="#ec455a"
         id="path22" />
      <path
         d="m 208,160 h 48 v 72 h -48 z"
         fill="#f6cc4f"
         id="path24" />
      <path
         d="m 128,128 h 48 v 104 h -48 z"
         fill="#f3ac3c"
         id="path26" />
      <path
         d="m 104,232 h 416 v 24 H 104 Z"
         fill="#5bcbfa"
         id="path28" />
      <path
         d="m 512,48 h 16 V 24 a 8,8 0 0 0 -8,-8 h -24 v 16 h 16 z"
         fill="#57a4ff"
         id="path30" />
      <path
         d="m 112,32 h 16 V 16 h -24 a 8,8 0 0 0 -8,8 v 24 h 16 z"
         fill="#57a4ff"
         id="path32" />
    </g>
    <path
       d="m 144,370 v 104 a 24,24 0 0 1 -48,0 v 0 -104 z"
       fill="#3e3d42"
       id="path35" />
    <path
       d="m 104,322 h 32 v 48 h -32 z"
       fill="#787680"
       id="path37" />
    <circle
       cx="120"
       cy="218"
       r="120"
       fill="#bdfdff"
       id="circle39" />
    <path
       d="m 96,402 h 48 v 24 H 96 Z"
       fill="#e8e5fb"
       id="path41" />
    <path
       d="m 40,218 a 80.09,80.09 0 0 1 80,-80 v -16 a 96.1,96.1 0 0 0 -96,96 z"
       fill="#fff"
       id="path43" />
    <path
       d="M 197,214.43 126.8,144.2 120,137.4 67.12,190.26 43,214.43 a 6.47,6.47 0 0 0 0,9.14 l 48.3,48.3 28.7,28.73 52.86,-52.86 0.83,-0.82 L 197,223.6 a 6.45,6.45 0 0 0 0,-9.13 v 0 z M 120,243.13 95.86,219 120,194.87 144.12,219 Z"
       fill="#2684ff"
       id="path45" />
    <path
       style="fill:url(#linearGradient907)"
       d="m 120,194.87 a 40.62,40.62 0 0 1 -0.17,-57.28 L 67,190.37 95.74,219.11 Z"
       fill="url(#e13c74e4-ae6d-4eee-9092-66f264303bac)"
       id="path47" />
    <path
       style="fill:url(#ee59aefe-1a80-4f54-9c16-7fd0a360129d)"
       d="M 144.18,218.93 120,243.13 a 40.63,40.63 0 0 1 0,57.46 l 53,-52.92 z"
       fill="url(#ee59aefe-1a80-4f54-9c16-7fd0a360129d)"
       id="path49" />
    <path
       d="m 392.41,58.68 -42.41,49.48 10.73,9.19 38.62,-45 44.41,25.37 a 7.06,7.06 0 0 0 8.82,-1.48 L 478.74,66.34 488.8,75.15 496.73,35 458,48.18 468.1,57 445.74,82.54 401.31,57.14 a 7.06,7.06 0 0 0 -8.9,1.54 z"
       fill="#ec455a"
       id="path51" />
  </g>
</svg>
